<mxfile host="app.diagrams.net" modified="2023-10-05T07:25:20.806Z" agent="Mozilla/5.0 (Macintosh; Intel Mac OS X 10_15_7) AppleWebKit/537.36 (KHTML, like Gecko) Chrome/117.0.0.0 Safari/537.36" version="21.8.0" etag="O_-tA4Z8FsX7xIwPOjr-" type="github">
  <diagram name="Page-1" id="kNBaUOQXtmwKGO3RzEcJ">
    <mxGraphModel>
      <root>
        <mxCell id="0" />
        <mxCell id="1" parent="0" />
      </root>
    </mxGraphModel>
  </diagram>
</mxfile>
